<svg width="36" height="33" viewBox="0 0 36 33" fill="none" xmlns="http://www.w3.org/2000/svg">
<path d="M0.183594 11.0822L15.5715 31.0947L8.59169 11.0822H0.183594Z" fill="url(#paint0_linear_32_3389)"/>
<path d="M9.96338 11.0822L17.3998 32.4041L24.9823 11.0822H9.96338Z" fill="url(#paint1_linear_32_3389)"/>
<path d="M19.0566 31.6115L34.8412 11.0822H26.3565L19.0566 31.6115Z" fill="url(#paint2_linear_32_3389)"/>
<path d="M28.82 0.288208H18.8657L25.691 9.0886L28.82 0.288208Z" fill="url(#paint3_linear_32_3389)"/>
<path d="M24.5309 9.73298L17.5124 0.684326L10.4946 9.73298H24.5309Z" fill="url(#paint4_linear_32_3389)"/>
<path d="M16.1596 0.288208H6.19824L9.28857 9.14796L16.1596 0.288208Z" fill="url(#paint5_linear_32_3389)"/>
<path d="M5.12523 1.14221L0 9.7328H8.1209L5.12523 1.14221Z" fill="url(#paint6_linear_32_3389)"/>
<path d="M35.0251 9.7329L29.8947 1.13354L26.8359 9.7329H35.0251Z" fill="url(#paint7_linear_32_3389)"/>
<defs>
<linearGradient id="paint0_linear_32_3389" x1="8.64695" y1="7.93203" x2="10.1143" y2="43.359" gradientUnits="userSpaceOnUse">
<stop stop-color="#FD749B"/>
<stop offset="1" stop-color="#281AC8"/>
</linearGradient>
<linearGradient id="paint1_linear_32_3389" x1="18.2238" y1="7.72592" x2="19.9298" y2="45.4585" gradientUnits="userSpaceOnUse">
<stop stop-color="#FD749B"/>
<stop offset="1" stop-color="#281AC8"/>
</linearGradient>
<linearGradient id="paint2_linear_32_3389" x1="27.7382" y1="7.85069" x2="29.2435" y2="44.1924" gradientUnits="userSpaceOnUse">
<stop stop-color="#FD749B"/>
<stop offset="1" stop-color="#281AC8"/>
</linearGradient>
<linearGradient id="paint3_linear_32_3389" x1="24.3405" y1="-1.09704" x2="24.7796" y2="14.4961" gradientUnits="userSpaceOnUse">
<stop stop-color="#FD749B"/>
<stop offset="1" stop-color="#281AC8"/>
</linearGradient>
<linearGradient id="paint4_linear_32_3389" x1="18.2146" y1="-0.739998" x2="18.5439" y2="15.299" gradientUnits="userSpaceOnUse">
<stop stop-color="#FD749B"/>
<stop offset="1" stop-color="#281AC8"/>
</linearGradient>
<linearGradient id="paint5_linear_32_3389" x1="11.677" y1="-1.10638" x2="12.1216" y2="14.5918" gradientUnits="userSpaceOnUse">
<stop stop-color="#FD749B"/>
<stop offset="1" stop-color="#281AC8"/>
</linearGradient>
<linearGradient id="paint6_linear_32_3389" x1="4.46649" y1="-0.21001" x2="4.97913" y2="15.0062" gradientUnits="userSpaceOnUse">
<stop stop-color="#FD749B"/>
<stop offset="1" stop-color="#281AC8"/>
</linearGradient>
<linearGradient id="paint7_linear_32_3389" x1="31.34" y1="-0.220057" x2="31.8494" y2="15.0119" gradientUnits="userSpaceOnUse">
<stop stop-color="#FD749B"/>
<stop offset="1" stop-color="#281AC8"/>
</linearGradient>
</defs>
</svg>
