<svg width="131" height="10" viewBox="0 0 131 10" fill="none" xmlns="http://www.w3.org/2000/svg">
<path d="M4.872 2.604C4.808 2.308 4.696 2.088 4.536 1.944C4.376 1.792 4.148 1.716 3.852 1.716C3.396 1.716 3.068 1.916 2.868 2.316C2.668 2.708 2.564 3.332 2.556 4.188C2.732 3.908 2.984 3.688 3.312 3.528C3.648 3.368 4.016 3.288 4.416 3.288C5.2 3.288 5.828 3.536 6.3 4.032C6.78 4.528 7.02 5.22 7.02 6.108C7.02 6.692 6.9 7.204 6.66 7.644C6.428 8.084 6.084 8.428 5.628 8.676C5.18 8.924 4.648 9.048 4.032 9.048C2.8 9.048 1.944 8.664 1.464 7.896C0.984 7.12 0.744 6.008 0.744 4.56C0.744 3.04 0.996 1.912 1.5 1.176C2.012 0.431999 2.828 0.0599992 3.948 0.0599992C4.548 0.0599992 5.052 0.179999 5.46 0.42C5.876 0.651999 6.188 0.96 6.396 1.344C6.612 1.728 6.74 2.148 6.78 2.604H4.872ZM3.924 4.908C3.58 4.908 3.292 5.012 3.06 5.22C2.836 5.42 2.724 5.708 2.724 6.084C2.724 6.468 2.828 6.768 3.036 6.984C3.252 7.2 3.556 7.308 3.948 7.308C4.3 7.308 4.576 7.204 4.776 6.996C4.984 6.78 5.088 6.488 5.088 6.12C5.088 5.744 4.988 5.448 4.788 5.232C4.588 5.016 4.3 4.908 3.924 4.908ZM10.3886 6.432C10.5086 7.064 10.8766 7.38 11.4926 7.38C11.9166 7.38 12.2166 7.192 12.3926 6.816C12.5686 6.44 12.6566 5.828 12.6566 4.98C12.4806 5.228 12.2406 5.42 11.9366 5.556C11.6326 5.692 11.2926 5.76 10.9166 5.76C10.4046 5.76 9.94863 5.656 9.54863 5.448C9.14863 5.232 8.83263 4.916 8.60063 4.5C8.37663 4.076 8.26463 3.564 8.26463 2.964C8.26463 2.372 8.38463 1.856 8.62463 1.416C8.87263 0.976 9.22063 0.636 9.66863 0.396C10.1246 0.156 10.6606 0.0359995 11.2766 0.0359995C12.4606 0.0359995 13.2886 0.404 13.7606 1.14C14.2326 1.876 14.4686 2.96 14.4686 4.392C14.4686 5.432 14.3726 6.292 14.1806 6.972C13.9966 7.644 13.6806 8.156 13.2326 8.508C12.7926 8.86 12.1886 9.036 11.4206 9.036C10.8126 9.036 10.2926 8.916 9.86063 8.676C9.43663 8.436 9.10863 8.12 8.87663 7.728C8.65263 7.336 8.52463 6.904 8.49263 6.432H10.3886ZM11.3846 4.14C11.7206 4.14 11.9886 4.04 12.1886 3.84C12.3886 3.632 12.4886 3.352 12.4886 3C12.4886 2.616 12.3846 2.32 12.1766 2.112C11.9686 1.904 11.6886 1.8 11.3366 1.8C10.9846 1.8 10.7046 1.908 10.4966 2.124C10.2966 2.332 10.1966 2.62 10.1966 2.988C10.1966 3.332 10.2966 3.612 10.4966 3.828C10.7046 4.036 11.0006 4.14 11.3846 4.14ZM19.8954 2.604C19.8314 2.308 19.7194 2.088 19.5594 1.944C19.3994 1.792 19.1714 1.716 18.8754 1.716C18.4194 1.716 18.0914 1.916 17.8914 2.316C17.6914 2.708 17.5874 3.332 17.5794 4.188C17.7554 3.908 18.0074 3.688 18.3354 3.528C18.6714 3.368 19.0394 3.288 19.4394 3.288C20.2234 3.288 20.8514 3.536 21.3234 4.032C21.8034 4.528 22.0434 5.22 22.0434 6.108C22.0434 6.692 21.9234 7.204 21.6834 7.644C21.4514 8.084 21.1074 8.428 20.6514 8.676C20.2034 8.924 19.6714 9.048 19.0554 9.048C17.8234 9.048 16.9674 8.664 16.4874 7.896C16.0074 7.12 15.7674 6.008 15.7674 4.56C15.7674 3.04 16.0194 1.912 16.5234 1.176C17.0354 0.431999 17.8514 0.0599992 18.9714 0.0599992C19.5714 0.0599992 20.0754 0.179999 20.4834 0.42C20.8994 0.651999 21.2114 0.96 21.4194 1.344C21.6354 1.728 21.7634 2.148 21.8034 2.604H19.8954ZM18.9474 4.908C18.6034 4.908 18.3154 5.012 18.0834 5.22C17.8594 5.42 17.7474 5.708 17.7474 6.084C17.7474 6.468 17.8514 6.768 18.0594 6.984C18.2754 7.2 18.5794 7.308 18.9714 7.308C19.3234 7.308 19.5994 7.204 19.7994 6.996C20.0074 6.78 20.1114 6.488 20.1114 6.12C20.1114 5.744 20.0114 5.448 19.8114 5.232C19.6114 5.016 19.3234 4.908 18.9474 4.908ZM22.9881 2.148V0.24H26.3121V9H24.1761V2.148H22.9881ZM33.8838 2.028H30.1398V3.684C30.2998 3.508 30.5238 3.364 30.8118 3.252C31.0998 3.14 31.4118 3.084 31.7478 3.084C32.3478 3.084 32.8438 3.22 33.2358 3.492C33.6358 3.764 33.9278 4.116 34.1118 4.548C34.2958 4.98 34.3878 5.448 34.3878 5.952C34.3878 6.888 34.1238 7.632 33.5958 8.184C33.0678 8.728 32.3238 9 31.3638 9C30.7238 9 30.1678 8.892 29.6958 8.676C29.2238 8.452 28.8598 8.144 28.6038 7.752C28.3478 7.36 28.2078 6.908 28.1838 6.396H30.1878C30.2358 6.644 30.3518 6.852 30.5358 7.02C30.7198 7.18 30.9718 7.26 31.2918 7.26C31.6678 7.26 31.9478 7.14 32.1318 6.9C32.3158 6.66 32.4078 6.34 32.4078 5.94C32.4078 5.548 32.3118 5.248 32.1198 5.04C31.9278 4.832 31.6478 4.728 31.2798 4.728C31.0078 4.728 30.7838 4.796 30.6078 4.932C30.4318 5.06 30.3158 5.232 30.2598 5.448H28.2798V0.228H33.8838V2.028ZM35.4485 7.356C35.7205 7.14 35.8445 7.04 35.8205 7.056C36.6045 6.408 37.2205 5.876 37.6685 5.46C38.1245 5.044 38.5085 4.608 38.8205 4.152C39.1325 3.696 39.2885 3.252 39.2885 2.82C39.2885 2.492 39.2125 2.236 39.0605 2.052C38.9085 1.868 38.6805 1.776 38.3765 1.776C38.0725 1.776 37.8325 1.892 37.6565 2.124C37.4885 2.348 37.4045 2.668 37.4045 3.084H35.4245C35.4405 2.404 35.5845 1.836 35.8565 1.38C36.1365 0.924 36.5005 0.588 36.9485 0.372C37.4045 0.155999 37.9085 0.0479994 38.4605 0.0479994C39.4125 0.0479994 40.1285 0.291999 40.6085 0.779999C41.0965 1.268 41.3405 1.904 41.3405 2.688C41.3405 3.544 41.0485 4.34 40.4645 5.076C39.8805 5.804 39.1365 6.516 38.2325 7.212H41.4725V8.88H35.4485V7.356ZM42.3039 7.356C42.5759 7.14 42.6999 7.04 42.6759 7.056C43.4599 6.408 44.0759 5.876 44.5239 5.46C44.9799 5.044 45.3639 4.608 45.6759 4.152C45.9879 3.696 46.1439 3.252 46.1439 2.82C46.1439 2.492 46.0679 2.236 45.9159 2.052C45.7639 1.868 45.5359 1.776 45.2319 1.776C44.9279 1.776 44.6879 1.892 44.5119 2.124C44.3439 2.348 44.2599 2.668 44.2599 3.084H42.2799C42.2959 2.404 42.4399 1.836 42.7119 1.38C42.9919 0.924 43.3559 0.588 43.8039 0.372C44.2599 0.155999 44.7639 0.0479994 45.3159 0.0479994C46.2679 0.0479994 46.9839 0.291999 47.4639 0.779999C47.9519 1.268 48.1959 1.904 48.1959 2.688C48.1959 3.544 47.9039 4.34 47.3199 5.076C46.7359 5.804 45.9919 6.516 45.0879 7.212H48.3279V8.88H42.3039V7.356ZM51.4394 6.432C51.5594 7.064 51.9274 7.38 52.5434 7.38C52.9674 7.38 53.2674 7.192 53.4434 6.816C53.6194 6.44 53.7074 5.828 53.7074 4.98C53.5314 5.228 53.2914 5.42 52.9874 5.556C52.6834 5.692 52.3434 5.76 51.9674 5.76C51.4554 5.76 50.9994 5.656 50.5994 5.448C50.1994 5.232 49.8834 4.916 49.6514 4.5C49.4274 4.076 49.3154 3.564 49.3154 2.964C49.3154 2.372 49.4354 1.856 49.6754 1.416C49.9234 0.976 50.2714 0.636 50.7194 0.396C51.1754 0.156 51.7114 0.0359995 52.3274 0.0359995C53.5114 0.0359995 54.3394 0.404 54.8114 1.14C55.2834 1.876 55.5194 2.96 55.5194 4.392C55.5194 5.432 55.4234 6.292 55.2314 6.972C55.0474 7.644 54.7314 8.156 54.2834 8.508C53.8434 8.86 53.2394 9.036 52.4714 9.036C51.8634 9.036 51.3434 8.916 50.9114 8.676C50.4874 8.436 50.1594 8.12 49.9274 7.728C49.7034 7.336 49.5754 6.904 49.5434 6.432H51.4394ZM52.4354 4.14C52.7714 4.14 53.0394 4.04 53.2394 3.84C53.4394 3.632 53.5394 3.352 53.5394 3C53.5394 2.616 53.4354 2.32 53.2274 2.112C53.0194 1.904 52.7394 1.8 52.3874 1.8C52.0354 1.8 51.7554 1.908 51.5474 2.124C51.3474 2.332 51.2474 2.62 51.2474 2.988C51.2474 3.332 51.3474 3.612 51.5474 3.828C51.7554 4.036 52.0514 4.14 52.4354 4.14ZM58.8222 6.432C58.9422 7.064 59.3102 7.38 59.9262 7.38C60.3502 7.38 60.6502 7.192 60.8262 6.816C61.0022 6.44 61.0902 5.828 61.0902 4.98C60.9142 5.228 60.6742 5.42 60.3702 5.556C60.0662 5.692 59.7262 5.76 59.3502 5.76C58.8382 5.76 58.3822 5.656 57.9822 5.448C57.5822 5.232 57.2662 4.916 57.0342 4.5C56.8102 4.076 56.6982 3.564 56.6982 2.964C56.6982 2.372 56.8182 1.856 57.0582 1.416C57.3062 0.976 57.6542 0.636 58.1022 0.396C58.5582 0.156 59.0942 0.0359995 59.7102 0.0359995C60.8942 0.0359995 61.7222 0.404 62.1942 1.14C62.6662 1.876 62.9022 2.96 62.9022 4.392C62.9022 5.432 62.8062 6.292 62.6142 6.972C62.4302 7.644 62.1142 8.156 61.6662 8.508C61.2262 8.86 60.6222 9.036 59.8542 9.036C59.2462 9.036 58.7262 8.916 58.2942 8.676C57.8702 8.436 57.5422 8.12 57.3102 7.728C57.0862 7.336 56.9582 6.904 56.9262 6.432H58.8222ZM59.8182 4.14C60.1542 4.14 60.4222 4.04 60.6222 3.84C60.8222 3.632 60.9222 3.352 60.9222 3C60.9222 2.616 60.8182 2.32 60.6102 2.112C60.4022 1.904 60.1222 1.8 59.7702 1.8C59.4182 1.8 59.1382 1.908 58.9302 2.124C58.7302 2.332 58.6302 2.62 58.6302 2.988C58.6302 3.332 58.7302 3.612 58.9302 3.828C59.1382 4.036 59.4342 4.14 59.8182 4.14ZM66.205 6.432C66.325 7.064 66.693 7.38 67.309 7.38C67.733 7.38 68.033 7.192 68.209 6.816C68.385 6.44 68.473 5.828 68.473 4.98C68.297 5.228 68.057 5.42 67.753 5.556C67.449 5.692 67.109 5.76 66.733 5.76C66.221 5.76 65.765 5.656 65.365 5.448C64.965 5.232 64.649 4.916 64.417 4.5C64.193 4.076 64.081 3.564 64.081 2.964C64.081 2.372 64.201 1.856 64.441 1.416C64.689 0.976 65.037 0.636 65.485 0.396C65.941 0.156 66.477 0.0359995 67.093 0.0359995C68.277 0.0359995 69.105 0.404 69.577 1.14C70.049 1.876 70.285 2.96 70.285 4.392C70.285 5.432 70.189 6.292 69.997 6.972C69.813 7.644 69.497 8.156 69.049 8.508C68.609 8.86 68.005 9.036 67.237 9.036C66.629 9.036 66.109 8.916 65.677 8.676C65.253 8.436 64.925 8.12 64.693 7.728C64.469 7.336 64.341 6.904 64.309 6.432H66.205ZM67.201 4.14C67.537 4.14 67.805 4.04 68.005 3.84C68.205 3.632 68.305 3.352 68.305 3C68.305 2.616 68.201 2.32 67.993 2.112C67.785 1.904 67.505 1.8 67.153 1.8C66.801 1.8 66.521 1.908 66.313 2.124C66.113 2.332 66.013 2.62 66.013 2.988C66.013 3.332 66.113 3.612 66.313 3.828C66.521 4.036 66.817 4.14 67.201 4.14ZM71.3078 7.356C71.5798 7.14 71.7038 7.04 71.6798 7.056C72.4638 6.408 73.0798 5.876 73.5278 5.46C73.9838 5.044 74.3678 4.608 74.6798 4.152C74.9918 3.696 75.1478 3.252 75.1478 2.82C75.1478 2.492 75.0718 2.236 74.9198 2.052C74.7678 1.868 74.5398 1.776 74.2358 1.776C73.9318 1.776 73.6918 1.892 73.5158 2.124C73.3478 2.348 73.2638 2.668 73.2638 3.084H71.2838C71.2998 2.404 71.4438 1.836 71.7158 1.38C71.9958 0.924 72.3598 0.588 72.8078 0.372C73.2638 0.155999 73.7678 0.0479994 74.3198 0.0479994C75.2718 0.0479994 75.9878 0.291999 76.4678 0.779999C76.9558 1.268 77.1998 1.904 77.1998 2.688C77.1998 3.544 76.9078 4.34 76.3238 5.076C75.7398 5.804 74.9958 6.516 74.0918 7.212H77.3318V8.88H71.3078V7.356ZM80.4433 6.432C80.5633 7.064 80.9313 7.38 81.5473 7.38C81.9713 7.38 82.2713 7.192 82.4473 6.816C82.6233 6.44 82.7113 5.828 82.7113 4.98C82.5353 5.228 82.2953 5.42 81.9913 5.556C81.6873 5.692 81.3473 5.76 80.9713 5.76C80.4593 5.76 80.0033 5.656 79.6033 5.448C79.2033 5.232 78.8873 4.916 78.6553 4.5C78.4313 4.076 78.3193 3.564 78.3193 2.964C78.3193 2.372 78.4393 1.856 78.6793 1.416C78.9273 0.976 79.2753 0.636 79.7233 0.396C80.1793 0.156 80.7153 0.0359995 81.3313 0.0359995C82.5153 0.0359995 83.3433 0.404 83.8153 1.14C84.2873 1.876 84.5233 2.96 84.5233 4.392C84.5233 5.432 84.4273 6.292 84.2353 6.972C84.0513 7.644 83.7353 8.156 83.2873 8.508C82.8473 8.86 82.2433 9.036 81.4753 9.036C80.8673 9.036 80.3473 8.916 79.9153 8.676C79.4913 8.436 79.1633 8.12 78.9313 7.728C78.7073 7.336 78.5793 6.904 78.5473 6.432H80.4433ZM81.4393 4.14C81.7753 4.14 82.0433 4.04 82.2433 3.84C82.4433 3.632 82.5433 3.352 82.5433 3C82.5433 2.616 82.4393 2.32 82.2313 2.112C82.0233 1.904 81.7433 1.8 81.3913 1.8C81.0393 1.8 80.7593 1.908 80.5513 2.124C80.3513 2.332 80.2513 2.62 80.2513 2.988C80.2513 3.332 80.3513 3.612 80.5513 3.828C80.7593 4.036 81.0553 4.14 81.4393 4.14ZM86.7821 9.096C86.4221 9.096 86.1261 8.992 85.8941 8.784C85.6701 8.568 85.5581 8.304 85.5581 7.992C85.5581 7.672 85.6701 7.404 85.8941 7.188C86.1261 6.972 86.4221 6.864 86.7821 6.864C87.1341 6.864 87.4221 6.972 87.6461 7.188C87.8781 7.404 87.9941 7.672 87.9941 7.992C87.9941 8.304 87.8781 8.568 87.6461 8.784C87.4221 8.992 87.1341 9.096 86.7821 9.096ZM88.9328 7.356C89.2048 7.14 89.3288 7.04 89.3048 7.056C90.0888 6.408 90.7048 5.876 91.1528 5.46C91.6088 5.044 91.9928 4.608 92.3048 4.152C92.6168 3.696 92.7728 3.252 92.7728 2.82C92.7728 2.492 92.6968 2.236 92.5448 2.052C92.3928 1.868 92.1648 1.776 91.8608 1.776C91.5568 1.776 91.3168 1.892 91.1408 2.124C90.9728 2.348 90.8888 2.668 90.8888 3.084H88.9088C88.9248 2.404 89.0688 1.836 89.3408 1.38C89.6208 0.924 89.9848 0.588 90.4328 0.372C90.8888 0.155999 91.3928 0.0479994 91.9448 0.0479994C92.8968 0.0479994 93.6128 0.291999 94.0928 0.779999C94.5808 1.268 94.8248 1.904 94.8248 2.688C94.8248 3.544 94.5328 4.34 93.9488 5.076C93.3648 5.804 92.6208 6.516 91.7168 7.212H94.9568V8.88H88.9328V7.356ZM95.9323 2.712C95.9643 1.856 96.2443 1.196 96.7723 0.732C97.3003 0.268 98.0163 0.0359995 98.9203 0.0359995C99.5203 0.0359995 100.032 0.14 100.456 0.348C100.888 0.556 101.212 0.839999 101.428 1.2C101.652 1.56 101.764 1.964 101.764 2.412C101.764 2.94 101.632 3.372 101.368 3.708C101.104 4.036 100.796 4.26 100.444 4.38V4.428C100.9 4.58 101.26 4.832 101.524 5.184C101.788 5.536 101.92 5.988 101.92 6.54C101.92 7.036 101.804 7.476 101.572 7.86C101.348 8.236 101.016 8.532 100.576 8.748C100.144 8.964 99.6283 9.072 99.0283 9.072C98.0683 9.072 97.3003 8.836 96.7243 8.364C96.1563 7.892 95.8563 7.18 95.8243 6.228H97.8163C97.8243 6.58 97.9243 6.86 98.1163 7.068C98.3083 7.268 98.5883 7.368 98.9563 7.368C99.2683 7.368 99.5083 7.28 99.6763 7.104C99.8523 6.92 99.9403 6.68 99.9403 6.384C99.9403 6 99.8163 5.724 99.5683 5.556C99.3283 5.38 98.9403 5.292 98.4043 5.292H98.0203V3.624H98.4043C98.8123 3.624 99.1403 3.556 99.3883 3.42C99.6443 3.276 99.7723 3.024 99.7723 2.664C99.7723 2.376 99.6923 2.152 99.5323 1.992C99.3723 1.832 99.1523 1.752 98.8723 1.752C98.5683 1.752 98.3403 1.844 98.1883 2.028C98.0443 2.212 97.9603 2.44 97.9363 2.712H95.9323ZM112.629 9H111.537L107.145 2.34V9H106.053V0.624H107.145L111.537 7.272V0.624H112.629V9ZM120.826 3.06C120.594 2.572 120.258 2.196 119.818 1.932C119.378 1.66 118.866 1.524 118.282 1.524C117.698 1.524 117.17 1.66 116.698 1.932C116.234 2.196 115.866 2.58 115.594 3.084C115.33 3.58 115.198 4.156 115.198 4.812C115.198 5.468 115.33 6.044 115.594 6.54C115.866 7.036 116.234 7.42 116.698 7.692C117.17 7.956 117.698 8.088 118.282 8.088C119.098 8.088 119.77 7.844 120.298 7.356C120.826 6.868 121.134 6.208 121.222 5.376H117.886V4.488H122.386V5.328C122.322 6.016 122.106 6.648 121.738 7.224C121.37 7.792 120.886 8.244 120.286 8.58C119.686 8.908 119.018 9.072 118.282 9.072C117.506 9.072 116.798 8.892 116.158 8.532C115.518 8.164 115.01 7.656 114.634 7.008C114.266 6.36 114.082 5.628 114.082 4.812C114.082 3.996 114.266 3.264 114.634 2.616C115.01 1.96 115.518 1.452 116.158 1.092C116.798 0.724 117.506 0.539999 118.282 0.539999C119.17 0.539999 119.954 0.76 120.634 1.2C121.322 1.64 121.822 2.26 122.134 3.06H120.826ZM130.406 9H129.314L124.922 2.34V9H123.83V0.624H124.922L129.314 7.272V0.624H130.406V9Z" fill="#333333"/>
</svg>
